<svg xmlns="http://www.w3.org/2000/svg" viewBox="0 0 1000 340" width="1000" height="340" role="img" aria-label="Uttampreet Kaur — a girl coding, pastel scene">
  <defs>
    <linearGradient id="bg" x1="0" y1="0" x2="1" y2="1"><stop offset="0" stop-color="#CFE8FF"/><stop offset="0.5" stop-color="#DCE7FF"/><stop offset="1" stop-color="#F3E7FB"/></linearGradient>
    <radialGradient id="blush" cx="0.85" cy="0.15" r="0.5"><stop offset="0" stop-color="#FFD8E8" stop-opacity="0.7"/><stop offset="1" stop-color="#FFD8E8" stop-opacity="0"/></radialGradient>
    <radialGradient id="blueglow" cx="0.15" cy="0.9" r="0.6"><stop offset="0" stop-color="#B7DBFF" stop-opacity="0.6"/><stop offset="1" stop-color="#B7DBFF" stop-opacity="0"/></radialGradient>
    <linearGradient id="nm" x1="0" y1="0" x2="1" y2="0"><stop offset="0" stop-color="#7AA8E8"/><stop offset="0.5" stop-color="#8E9BE8"/><stop offset="1" stop-color="#C29BDB"/></linearGradient>
    <radialGradient id="screenglow" cx="0.5" cy="0.5" r="0.6"><stop offset="0" stop-color="#AEE0FF" stop-opacity="0.9"/><stop offset="1" stop-color="#AEE0FF" stop-opacity="0"/></radialGradient>
    <linearGradient id="mn" x1="0" y1="0" x2="1" y2="1"><stop offset="0" stop-color="#FFF6DC"/><stop offset="1" stop-color="#FDE9C0"/></linearGradient>
  </defs>
  <rect x="1" y="1" width="998" height="338" rx="24" fill="url(#bg)"/>
  <rect x="1" y="1" width="998" height="338" rx="24" fill="url(#blush)"/>
  <rect x="1" y="1" width="998" height="338" rx="24" fill="url(#blueglow)"/>
  <circle cx="792" cy="60" r="26" fill="url(#mn)"/><circle cx="784" cy="54" r="26" fill="url(#bg)" opacity="0.9"/>
  <g fill="#FFFFFF">
    <circle cx="700" cy="46" r="2"><animate attributeName="opacity" values="0.2;1;0.2" dur="3s" repeatCount="indefinite"/></circle>
    <circle cx="860" cy="90" r="2.3"><animate attributeName="opacity" values="1;0.2;1" dur="2.6s" repeatCount="indefinite"/></circle>
    <circle cx="640" cy="96" r="1.8"><animate attributeName="opacity" values="0.3;1;0.3" dur="3.4s" repeatCount="indefinite"/></circle>
  </g>
  <circle cx="560" cy="250" r="40" fill="#FFFFFF" opacity="0.12"><animateTransform attributeName="transform" type="translate" values="0 0;0 -12;0 0" dur="7s" repeatCount="indefinite"/></circle>
  <circle cx="930" cy="220" r="26" fill="#FFFFFF" opacity="0.14"><animateTransform attributeName="transform" type="translate" values="0 0;0 10;0 0" dur="9s" repeatCount="indefinite"/></circle>

  <text x="64" y="120" font-family="'JetBrains Mono',monospace" font-size="13" letter-spacing="3.5" fill="#7E8BB5">✦ AI ENGINEER · TRUST &amp; SAFETY</text>
  <text x="60" y="186" font-family="'Segoe UI','Helvetica Neue',Arial,sans-serif" font-size="56" font-weight="800" letter-spacing="-1" fill="url(#nm)">Uttampreet Kaur</text>
  <text x="64" y="224" font-family="'Segoe UI',Arial,sans-serif" font-size="17" fill="#6E7CA0">I build AI that protects people — and makes</text>
  <text x="64" y="248" font-family="'Segoe UI',Arial,sans-serif" font-size="17" fill="#6E7CA0">the complex feel simple.</text>
  <rect x="64" y="270" width="150" height="26" rx="13" fill="#FFFFFF" opacity="0.55"/>
  <text x="80" y="287" font-family="'JetBrains Mono',monospace" font-size="12.5" fill="#6C7BB0">&lt;/&gt; always building</text>

  <g transform="translate(600,30)">
    <rect x="20" y="252" width="352" height="14" rx="7" fill="#E8D6C4"/>
    <rect x="46" y="266" width="10" height="30" rx="3" fill="#E0CBB6"/><rect x="336" y="266" width="10" height="30" rx="3" fill="#E0CBB6"/>
    <rect x="70" y="150" width="34" height="118" rx="16" fill="#C7BDEB"/>
    <path d="M104 262 Q108 188 156 186 Q204 188 208 262 Z" fill="#9FCBF2"/>
    <path d="M196 210 Q236 214 250 236" stroke="#8FBDEC" stroke-width="20" fill="none" stroke-linecap="round"/>
    <rect x="146" y="168" width="20" height="20" rx="8" fill="#F3D3BE"/>
    <circle cx="156" cy="146" r="34" fill="#B58A6B"/>
    <path d="M124 150 Q120 196 140 200 L172 200 Q192 196 188 150 Z" fill="#B58A6B"/>
    <circle cx="156" cy="116" r="17" fill="#A87C5C"/><circle cx="156" cy="116" r="6" fill="#96684A"/>
    <path d="M124 146 Q156 108 188 146" stroke="#7FB0E0" stroke-width="7" fill="none" stroke-linecap="round"/>
    <circle cx="124" cy="150" r="10" fill="#7FB0E0"/><circle cx="124" cy="150" r="5" fill="#EAF4FF"/>
    <circle cx="188" cy="150" r="10" fill="#7FB0E0"/><circle cx="188" cy="150" r="5" fill="#EAF4FF"/>
    <ellipse cx="292" cy="212" rx="70" ry="46" fill="url(#screenglow)"/>
    <rect x="248" y="248" width="92" height="9" rx="4" fill="#D7DEEA"/>
    <g transform="skewX(-8)">
      <rect x="266" y="182" width="86" height="66" rx="7" fill="#33406A"/><rect x="272" y="188" width="74" height="54" rx="4" fill="#26325A"/>
      <rect x="278" y="196" width="30" height="4" rx="2" fill="#8FD3F4"/><rect x="312" y="196" width="16" height="4" rx="2" fill="#F7B7D2"/>
      <rect x="278" y="206" width="18" height="4" rx="2" fill="#F7B7D2"/><rect x="300" y="206" width="34" height="4" rx="2" fill="#B5E8C9"/>
      <rect x="286" y="216" width="40" height="4" rx="2" fill="#C9C2F5"/><rect x="278" y="226" width="24" height="4" rx="2" fill="#8FD3F4"/>
      <rect x="306" y="226" width="6" height="4" rx="1" fill="#FFF3C4"><animate attributeName="opacity" values="1;1;0;0" dur="1s" repeatCount="indefinite"/></rect>
    </g>
    <rect x="150" y="230" width="26" height="22" rx="5" fill="#FBDDE8"/>
    <path d="M176 236 q10 0 10 6 t-10 6" fill="none" stroke="#F3C6D6" stroke-width="4"/>
    <g stroke="#FFFFFF" stroke-width="3" fill="none" stroke-linecap="round">
      <path d="M158 228 q-5 -8 0 -16 q5 -8 0 -16"><animate attributeName="opacity" values="0;0.9;0" dur="3s" repeatCount="indefinite"/><animateTransform attributeName="transform" type="translate" values="0 4;0 -14;0 -20" dur="3s" repeatCount="indefinite"/></path>
      <path d="M168 228 q-5 -8 0 -16 q5 -8 0 -16"><animate attributeName="opacity" values="0;0.8;0" dur="3s" begin="1.2s" repeatCount="indefinite"/><animateTransform attributeName="transform" type="translate" values="0 4;0 -14;0 -20" dur="3s" begin="1.2s" repeatCount="indefinite"/></path>
    </g>
    <path d="M330 252 l6 -18 h16 l6 18 Z" fill="#E7B9A6"/>
    <g fill="#A9D9B8">
      <ellipse cx="338" cy="226" rx="6" ry="13" transform="rotate(-18 338 226)"/>
      <ellipse cx="348" cy="222" rx="6" ry="15"/>
      <ellipse cx="358" cy="228" rx="6" ry="12" transform="rotate(18 358 228)"/>
    </g>
    <path d="M226 120 l3 7 7 3 -7 3 -3 7 -3 -7 -7 -3 7 -3 Z" fill="#FFF3C4"><animate attributeName="opacity" values="0.3;1;0.3" dur="2.4s" repeatCount="indefinite"/></path>
    <path d="M360 150 l2 5 5 2 -5 2 -2 5 -2 -5 -5 -2 5 -2 Z" fill="#FFFFFF"><animate attributeName="opacity" values="1;0.2;1" dur="3s" repeatCount="indefinite"/></path>
  </g>
</svg>
